inDegrees=no
num_controls=7
num_derivatives=13
num_iterations=129
num_multipliers=7
num_parameters=0
num_slacks=7
num_states=26
objective=5.180796
objective_accelerations=0.658069
objective_balance=0.013812
objective_effort=0.165851
objective_height=4.226845
objective_ligament=0.116220
solver_duration=1419.112944
status=Solve_Succeeded
success=true
DataType=double
version=3
OpenSimVersion=4.4-2022-07-23-0e9fedc
endheader
time	/jointset/ground_pelvis/pelvis_tilt/value	/jointset/ground_pelvis/pelvis_tx/value	/jointset/ground_pelvis/pelvis_ty/value	/jointset/hip_l/hip_flexion_l/value	/jointset/hip_l/hip_adduction_l/value	/jointset/hip_l/hip_rotation_l/value	/jointset/back/lumbar_extension/value	/jointset/patellofemoral_l/patellar_flexion_l/value	/jointset/knee_l/knee_flexion_l/value	/jointset/knee_l/knee_adduction_l/value	/jointset/knee_l/knee_rotation_l/value	/jointset/ankle_l/ankle_angle_l/value	/jointset/subtalar_l/subtalar_angle_l/value	/jointset/ground_pelvis/pelvis_tilt/speed	/jointset/ground_pelvis/pelvis_tx/speed	/jointset/ground_pelvis/pelvis_ty/speed	/jointset/hip_l/hip_flexion_l/speed	/jointset/hip_l/hip_adduction_l/speed	/jointset/hip_l/hip_rotation_l/speed	/jointset/back/lumbar_extension/speed	/jointset/patellofemoral_l/patellar_flexion_l/speed	/jointset/knee_l/knee_flexion_l/speed	/jointset/knee_l/knee_adduction_l/speed	/jointset/knee_l/knee_rotation_l/speed	/jointset/ankle_l/ankle_angle_l/speed	/jointset/subtalar_l/subtalar_angle_l/speed	/forceset/tau_hip_flexion_l	/forceset/tau_hip_adduction_l	/forceset/tau_hip_rotation_l	/forceset/tau_knee_flexion_l	/forceset/tau_ankle_angle_l	/forceset/tau_subtalar_angle_l	/forceset/tau_lumbar_extension	lambda_cid13_p0	lambda_cid13_p1	lambda_cid13_p2	lambda_cid13_p3	lambda_cid13_p4	lambda_cid13_p5	lambda_cid14_p0	/jointset/ground_pelvis/pelvis_tilt/accel	/jointset/ground_pelvis/pelvis_tx/accel	/jointset/ground_pelvis/pelvis_ty/accel	/jointset/hip_l/hip_flexion_l/accel	/jointset/hip_l/hip_adduction_l/accel	/jointset/hip_l/hip_rotation_l/accel	/jointset/back/lumbar_extension/accel	/jointset/patellofemoral_l/patellar_flexion_l/accel	/jointset/knee_l/knee_flexion_l/accel	/jointset/knee_l/knee_adduction_l/accel	/jointset/knee_l/knee_rotation_l/accel	/jointset/ankle_l/ankle_angle_l/accel	/jointset/subtalar_l/subtalar_angle_l/accel	gamma_cid13_p0	gamma_cid13_p1	gamma_cid13_p2	gamma_cid13_p3	gamma_cid13_p4	gamma_cid13_p5	gamma_cid14_p0
0	0.05603368439493017	0.1039125423047344	0.9053037801505319	0.1266917050730164	-0.3487901056706632	-0.2396072233994508	-0.2144974744115991	0.2051547269256849	0.2051547269256735	-0.1306116930937415	-0.1641332171968335	0.09024399430361882	0.1023167133087622	0	0	0	0	0	0	0	0	0	0	0	0	0	0.1161545920597619	-0.07315235243432973	-0.008444277322615832	-0.2497209002089479	0.1858889273472314	-0.05135254323601331	-0.04807701944293402	30.61873973878805	18.88589549584649	-5.513145657903924	-21.42085687073192	-439.1753126186531	-72.53819520430133	-26.0604552143333	-3.100751866967744	-0.9475422553290979	-0.8398406005510858	10.71204616026143	-0.3007596131702214	3.002392105530904	-3.502745568616135	10.22503601660428	10.22503601660041	2.076655408189511	-0.7105879584755725	3.493442691963879	0.752513053330669	-3.183653700012311e-09	4.332601319252947e-07	-1.318363934049014e-07	4.001237573191035e-08	3.61688868873733e-08	2.388451931596216e-07	5.515261163814697e-08
0.01	0.05588605113638818	0.1038656263138925	0.9052630280103738	0.1272120486402232	-0.3488039710363297	-0.2394531691285417	-0.2146765470036707	0.2056539835231611	0.2056539835227096	-0.1305091087221871	-0.1641603454626382	0.09041467777951678	0.1023542938648871	-0.02940741610876873	-0.009362432957398508	-0.008126501594370955	0.1036297191411168	-0.002769637549648631	0.03069358727071975	-0.03556010701110314	0.09937814355915914	0.09937814355915588	0.02038528343626672	-0.005370113646263943	0.03393715172828745	0.007458719432416326	0.1129166039216577	-0.07836271702119089	-0.007835039316627306	-0.2450860037545395	0.1772310283794826	-0.04414894103282483	-0.04557498574182071	28.26099185155848	15.86837080153569	-4.687312662507919	-19.9508808386856	-439.8437978517092	-78.40516173135056	-26.06066268482832	-2.842852793368351	-0.9274710327902541	-0.7954587394590363	10.12258380181916	-0.2645923649935139	3.085286014515342	-3.544481556556941	9.723216109552238	9.723216109553503	1.999783264113131	-0.4419238294759616	3.313930618645099	0.7338904307014682	-1.71712217731931e-08	5.879391370049954e-07	-1.324129687863755e-07	6.785133922500978e-08	-1.225687748323234e-07	2.585799590271057e-07	7.736260561025979e-08
0.02	0.05544792045461697	0.1037257105501054	0.9051417300941557	0.1287555192011918	-0.3488454380854161	-0.2389956901897681	-0.2152035883236705	0.2071328240727072	0.2071328240727067	-0.1302066078263997	-0.1642395150177207	0.09091874861373705	0.1024647294238375	-0.05809948463906939	-0.01859995458902316	-0.01610915521204235	0.2046253987133828	-0.00552033666465966	0.06068493360834012	-0.0695937455901338	0.1959167904775511	0.1959167904775614	0.03998330498328809	-0.01040825776348302	0.06667747167193377	0.01457100056501739	0.1096786157870101	-0.08357308160757269	-0.007225801307726981	-0.2404511072983224	0.1685731294125944	-0.03694533882887557	-0.04307295203872104	25.95041222649147	12.85294369980512	-3.873644541446428	-18.53301929377903	-439.6801961590607	-84.08467075571912	-26.06102835465986	-2.95768235127365	-0.9225599901746755	-0.8110710052111537	10.1852382464912	-0.296971926242704	2.86194391891101	-3.197451882201372	9.657136688450899	9.657136688450393	1.91920303034041	-0.6441940526666606	3.254076335035256	0.68322539336747	-3.11587898463739e-08	7.426181420846959e-07	-1.329895441678497e-07	9.569030271810921e-08	-2.813064365520201e-07	2.783147248945898e-07	9.957259958237259e-08
0.03	0.05472605130836232	0.103494020309282	0.904941053514144	0.1312966063857942	-0.3489142035598318	-0.2382428774033271	-0.2160629771133095	0.2095635119141226	0.2095635119141986	-0.1297118078407068	-0.1643684144466212	0.09174442085973351	0.1026447750280067	-0.08615201021186816	-0.02771826378815412	-0.02402209272187821	0.3031626974437743	-0.008217479247498069	0.08977062219340484	-0.1020383930386931	0.2897591318084509	0.2897591318084474	0.05885061450001426	-0.01528770034160008	0.09826134443046142	0.02139683246872827	0.1060441362984351	-0.07919411434284025	-0.006605986274599051	-0.2358521238484586	0.1624465980277568	-0.03809366265134782	-0.04035038860229136	23.90480379638569	13.52055834610671	-3.76388426735723	-17.08353922653637	-439.6684533490957	-81.92080660703246	-26.061173201465	-2.71068341025276	-0.9034726670203467	-0.7808518162008756	9.623573322610428	-0.2538792426772088	2.915875469534257	-3.231128280641578	9.178515951183675	9.178515951182046	1.851693228926573	-0.3972694587788045	3.081216951914178	0.6759683586172206	-3.910632073634978e-08	8.158862539836791e-07	-1.404529190461412e-07	1.120892282984673e-07	-3.927463935426419e-07	2.888839215074017e-07	1.126220233365624e-07
